<svg t="1692417013015" class="icon" viewBox="0 0 1024 1024" version="1.1" xmlns="http://www.w3.org/2000/svg" p-id="5393" width="48" height="48"><path d="M0.234057 508.679314C0.234057 789.562514 227.913143 1017.270857 508.781714 1017.270857c280.868571 0 508.576914-227.693714 508.576915-508.576914 0-280.868571-227.693714-508.562286-508.576915-508.562286C227.927771 0.117029 0.234057 227.810743 0.234057 508.679314z" fill="#5677fc" p-id="5394" data-spm-anchor-id="a313x.search_index.0.i8.70833a81nkiif5" class=""></path><path d="M725.2992 695.442286h-192.804571V345.439086c-0.292571-46.226286 5.266286-54.710857 14.043428-58.221715a29.988571 29.988571 0 0 1 24.576 0l140.141714 73.142858c8.469943 3.905829 13.941029 12.331886 14.043429 21.650285V695.442286z m-220.891429 0h-212.992V355.093943a24.941714 24.941714 0 0 1 14.043429-22.235429l160.329143-84.553143a35.986286 35.986286 0 0 1 28.086857 0c10.532571 3.803429 10.532571 10.825143 10.532571 58.221715V695.442286z m-80.164571-45.143772l0.877714-34.230857c0-4.096-3.218286-7.314286-7.314285-7.314286h-40.374858c-4.096 0-7.314286 3.218286-7.314285 7.314286v34.230857a7.241143 7.241143 0 0 0 7.314285 7.314286h39.497143c4.096 0 7.314286-3.218286 7.314286-7.314286z m0-103.277714l0.877714-34.816c0-4.096-3.218286-7.314286-7.314285-7.314286h-40.374858c-4.096 0-7.314286 3.218286-7.314285 7.314286v34.816a7.241143 7.241143 0 0 0 7.314285 7.314286h39.497143c4.096 0 7.314286-3.218286 7.314286-7.314286z m0-102.985143l0.877714-35.108571c0-4.096-3.218286-7.314286-7.314285-7.314286h-40.374858c-4.096 0-7.314286 3.218286-7.314285 7.314286v35.108571a7.241143 7.241143 0 0 0 7.314285 7.314286h39.497143c4.096 0 7.314286-3.218286 7.314286-7.314286z m230.838857-0.292571v-34.816c0-4.096-3.218286-7.314286-7.314286-7.314286h-40.374857c-4.096 0-7.314286 3.218286-7.314285 7.314286v34.816a7.241143 7.241143 0 0 0 7.314285 7.314285h40.374857c4.096 0 7.314286-3.218286 7.314286-7.314285z m37.449143 181.0432l-21.884343-30.134857a56.276114 56.276114 0 0 0 13.034057-28.101486 56.32 56.32 0 0 0-10.093714-42.115657 56.466286 56.466286 0 0 0-59.362743-21.650286 56.466286 56.466286 0 0 0-34.435657 25.014857c-4.008229 6.436571-6.641371 13.531429-7.840914 21.065143a56.32 56.32 0 0 0 10.108343 42.101029 56.6272 56.6272 0 0 0 72.689371 16.471771l21.313829 29.344914a10.196114 10.196114 0 1 0 16.4864-11.995428z m-70.363429-31.378286a35.898514 35.898514 0 0 1-23.610514-14.482286 35.898514 35.898514 0 0 1-6.465828-26.916571 35.898514 35.898514 0 0 1 14.467657-23.595886 35.898514 35.898514 0 0 1 26.916571-6.465828 35.898514 35.898514 0 0 1 23.595886 14.482285c5.690514 7.811657 7.9872 17.349486 6.465828 26.916572a35.898514 35.898514 0 0 1-14.467657 23.595885 35.84 35.84 0 0 1-26.916571 6.465829z" fill="#ffffff" p-id="5395" data-spm-anchor-id="a313x.search_index.0.i3.70833a81nkiif5" class="selected"></path></svg>