<svg t="1692417380142" class="icon" viewBox="0 0 1027 1024" version="1.1" xmlns="http://www.w3.org/2000/svg" p-id="12828" width="48" height="48"><path d="M679.371172 570.120538h60.816852c13.581432 0 24.566413-10.984981 24.566413-24.566413v-60.816852c0-13.581432-10.984981-24.566413-24.566413-24.566413h-60.816852c-13.581432 0-24.566413 10.984981-24.566413 24.566413v60.816852c0 13.581432 10.984981 24.566413 24.566413 24.566413zM331.846304 435.304857h-81.588453c-21.570509 0-39.046616 17.476107-39.046616 39.046616v81.588453c0 21.570509 17.476107 39.046616 39.046616 39.046616h81.588453c21.570509 0 39.046616-17.476107 39.046616-39.046616V474.351473c-0.099863-21.570509-17.57597-39.046616-39.046616-39.046616zM679.371172 794.21416h60.816852c13.581432 0 24.566413-10.984981 24.566413-24.566413v-60.816852c0-13.581432-10.984981-24.566413-24.566413-24.566413h-60.816852c-13.581432 0-24.566413 10.984981-24.566413 24.566413v60.816852c0 13.481568 10.984981 24.566413 24.566413 24.566413zM740.188024 229.885703h-60.816852c-13.581432 0-24.566413 10.984981-24.566413 24.566413v60.816852c0 13.581432 10.984981 24.566413 24.566413 24.566413h60.816852c13.581432 0 24.566413-10.984981 24.566413-24.566413v-60.816852c0-13.481568-10.984981-24.566413-24.566413-24.566413z" fill="#5677fc" p-id="12829" data-spm-anchor-id="a313x.search_index.0.i15.70833a81nkiif5" class="selected"></path><path d="M515.495221 1.997269C233.281061 1.997269 4.493856 230.784474 4.493856 512.998635s228.787205 511.001365 511.001365 511.001365 511.001365-228.787205 511.001366-511.001365C1026.59645 230.784474 797.809245 1.997269 515.495221 1.997269z m284.810611 313.371563c0 33.154671-26.963136 60.117808-60.117808 60.117807h-60.816852c-33.154671 0-60.117808-26.963136-60.117807-60.117807V307.579481H510.502048c-3.195631 0-5.692218 2.59645-5.692218 5.692218v184.148235h114.543398v-12.682661c0-33.154671 26.963136-60.117808 60.117808-60.117807h60.816852c33.154671 0 60.117808 26.963136 60.117807 60.117807v60.816852c0 33.154671-26.963136 60.117808-60.117807 60.117808h-60.816852c-33.154671 0-60.117808-26.963136-60.117808-60.117808v-12.68266H504.709967V717.0197c0 3.195631 2.59645 5.692218 5.692218 5.692217H619.153501v-13.980885c0-33.154671 26.963136-60.117808 60.117808-60.117808h60.816852c33.154671 0 60.117808 26.963136 60.117807 60.117808v60.816852c0 33.154671-26.963136 60.117808-60.117807 60.117807h-60.816852c-33.154671 0-60.117808-26.963136-60.117808-60.117807v-11.384436H510.502048c-22.768871 0-41.243612-18.474742-41.243612-41.243612V532.871465h-62.913985v23.068461c0 41.143749-33.454262 74.498147-74.498147 74.498147h-81.588453c-41.143749 0-74.498147-33.454262-74.498147-74.498147V474.351473c0-41.143749 33.454262-74.498147 74.498147-74.498147h81.588453c41.143749 0 74.498147 33.454262 74.498147 74.498147v23.068461h62.913985V313.271699c0-22.768871 18.474742-41.243612 41.243612-41.243612h108.751317v-17.575971c0-33.154671 26.963136-60.117808 60.117807-60.117807h60.816852c33.154671 0 60.117808 26.963136 60.117808 60.117807v60.916716z" fill="#5677fc" p-id="12830" data-spm-anchor-id="a313x.search_index.0.i11.70833a81nkiif5" class="selected"></path></svg>